Coordinates
version=1
nRows=17
nColumns=24
inDegrees=yes

Units are S.I. units (second, meters, Newtons, ...)
Angles are in degrees.

endheader
time	pelvis_tilt	pelvis_list	pelvis_rotation	pelvis_tx	pelvis_ty	pelvis_tz	hip_flexion_r	hip_adduction_r	hip_rotation_r	knee_angle_r	ankle_angle_r	subtalar_angle_r	mtp_angle_r	hip_flexion_l	hip_adduction_l	hip_rotation_l	knee_angle_l	ankle_angle_l	subtalar_angle_l	mtp_angle_l	lumbar_extension	lumbar_bending	lumbar_rotation
      0.00000000	      4.41154894	     -2.24954517	     -4.06329195	     -0.58767805	      0.97149705	      0.15144743	    -22.69404235	      1.45454200	    -18.86144741	     -9.32374287	      9.56325669	     17.84937596	     40.92905956	     22.21140124	     -1.69017334	    -17.75242958	    -11.62063564	      1.56161835	      6.02178649	     23.45307931	    -12.97965939	      1.64258013	      5.78940740
      0.00400000	      4.44229762	     -2.14442865	     -4.18145326	     -0.58526873	      0.97148174	      0.15152360	    -22.66281187	      1.22195970	    -18.85231591	     -9.58307977	      9.47219574	     17.64773724	     39.81073108	     22.15334617	     -1.65408977	    -17.87654490	    -11.83002131	      1.54562436	      6.01184947	     23.11826267	    -12.96607206	      1.46324516	      5.84784350
      0.00800000	      4.45884564	     -2.03322820	     -4.27794326	     -0.58249301	      0.97154353	      0.15154829	    -22.62001614	      0.98091012	    -18.84904368	     -9.89039686	      9.27672209	     17.44551277	     39.30903296	     22.10010116	     -1.59590121	    -17.96279606	    -12.04862128	      1.50755087	      5.97237018	     22.86826942	    -12.93633610	      1.27859946	      5.88663611
      0.01200000	      4.46229680	     -1.91609970	     -4.35432459	     -0.57935725	      0.97167404	      0.15152346	    -22.56444981	      0.73078333	    -18.84924775	    -10.24653367	      8.98193511	     17.24089835	     39.38975419	     22.05096518	     -1.51701146	    -18.01402173	    -12.27693213	      1.44925854	      5.90540634	     22.69807693	    -12.89159697	      1.08838601	      5.90664642
      0.01600000	      4.45414787	     -1.79325213	     -4.41265842	     -0.57587084	      0.97186125	      0.15145155	    -22.49426635	      0.47075666	    -18.85000236	    -10.65254502	      8.59454172	     17.03137533	     40.00689601	     22.00494891	     -1.41932707	    -18.03394362	    -12.51547450	      1.37324614	      5.81368484	     22.60095693	    -12.83333767	      0.89234982	      5.90901276
      0.02000000	      4.43613401	     -1.66495110	     -4.45536613	     -0.57204688	      0.97209146	      0.15133540	    -22.40703083	      0.19987612	    -18.84817361	    -11.10963370	      8.12236995	     16.81381343	     41.10522045	     21.96083047	     -1.30511213	    -18.02689090	    -12.76465090	      1.28250594	      5.70042432	     22.56886322	    -12.76325731	      0.69031115	      5.89507383
      0.02400000	      4.41002212	     -1.53152910	     -4.48509949	     -0.56790298	      0.97235223	      0.15117832	    -22.29988344	     -0.08282417	    -18.84067540	    -11.61913010	      7.57392030	     16.58461273	     42.62262649	     21.91724680	     -1.17680307	    -17.99754443	    -13.02461302	      1.18038439	      5.56917297	     22.59279223	    -12.68316252	      0.48222159	      5.86629591
      0.02800000	      4.37741411	     -1.39338814	     -4.50460934	     -0.56346153	      0.97263503	      0.15098409	    -22.16975442	     -0.37818298	    -18.82463818	    -12.18248534	      6.95796687	     16.33988524	     44.49234058	     21.87280466	     -1.03681603	    -17.95070258	    -13.29515013	      1.07044939	      5.42366180	     22.66311564	    -12.59487285	      0.26819876	      5.82420419
      0.03200000	      4.33961411	     -1.25098758	     -4.51660764	     -0.55874905	      0.97293620	      0.15075676	    -22.01356346	     -0.68678254	    -18.79749907	    -12.80124169	      6.28321834	     16.07566500	     46.64491170	     21.82618651	     -0.88738184	    -17.89107114	    -13.57561090	      0.95636595	      5.26767317	     22.76988397	    -12.50014109	      0.04853867	      5.77031908
      0.03600000	      4.29757912	     -1.10481947	     -4.52362665	     -0.55379494	      0.97325635	      0.15050038	    -21.82836298	     -1.00885393	    -18.75703147	    -13.47696026	      5.55804730	     15.78812942	     49.01000413	     21.77623093	     -0.73043073	    -17.82308014	    -13.86486787	      0.84178263	      5.10492462	     22.90310048	    -12.40058920	     -0.17629304	      5.70609882
      0.04000000	      4.25194154	     -0.95537883	     -4.52788764	     -0.54862982	      0.97359853	      0.15021874	    -21.61141683	     -1.34423031	    -18.70133582	    -14.21110578	      4.79029415	     15.47381368	     51.51798485	     21.72197649	     -0.56753204	    -17.75073151	    -14.16132746	      0.73023093	      4.93896872	     23.05296451	    -12.29766076	     -0.40568734	      5.63289012
      0.04400000	      4.20307469	     -0.80313696	     -4.53119487	     -0.54328410	      0.97396620	      0.14991518	    -21.36022949	     -1.69234799	    -18.62881168	    -15.00490359	      3.98714884	     15.12980197	     54.10130592	     21.66266937	     -0.39988190	    -17.67748124	    -14.46298171	      0.62503972	      4.77310979	     23.21008377	    -12.19259090	     -0.63893053	      5.55188829
      0.04800000	      4.15117084	     -0.64852281	     -4.53486894	     -0.53778705	      0.97436162	      0.14959259	    -21.07255037	     -2.05228508	    -18.53812749	    -15.85919074	      3.15511014	     14.75388357	     56.69568527	     21.59774311	     -0.22832563	    -17.60615896	    -14.76749221	      0.52926545	      4.61033805	     23.36565545	    -12.08639343	     -0.87524972	      5.46410787
      0.05200000	      4.09631000	     -0.49191316	     -4.53972792	     -0.53216631	      0.97478506	      0.14925340	    -20.74637626	     -2.42282221	    -18.42819875	    -16.77428273	      2.30001828	     14.34466613	     59.24109214	     21.52678290	     -0.05340091	    -17.53892640	    -15.07229334	      0.44563860	      4.45328178	     23.51161609	    -11.97986410	     -1.11385890	      5.37036454
      0.05600000	      4.03850957	     -0.33362984	     -4.54611633	     -0.52644783	      0.97523469	      0.14889975	    -20.37996618	     -2.80250958	    -18.29817981	    -17.74987197	      1.42715261	     13.90164349	     61.68254595	     21.44948647	      0.12460935	    -17.47727392	    -15.37470129	      0.37652576	      4.30417685	     23.64076081	    -11.87359770	     -1.35400035	      5.27126799
      0.06000000	      3.97775375	     -0.17394115	     -4.55397453	     -0.52065602	      0.97570711	      0.14853351	    -19.97187364	     -3.18972882	    -18.14746985	    -18.78496679	      0.54138135	     13.42521862	     63.97073880	     21.36562996	      0.30562157	    -17.42205225	    -15.67201768	      0.32390616	      4.16485317	     23.74683253	    -11.76801544	     -1.59497708	      5.16722547
      0.06400000	      3.91400788	     -0.01306566	     -4.56293490	     -0.51481377	      0.97619803	      0.14815640	    -19.52099248	     -3.58274366	    -17.97572983	    -19.87787228	     -0.35265264	     12.91668526	     66.06249352	     21.27504274	      0.48969716	    -17.37353426	    -15.96161952	      0.28936128	      4.03673643	     23.82458255	    -11.66339847	     -1.83617365	      5.05845467
